<svg width="500" height="250" xmlns="http://www.w3.org/2000/svg" version="1.1"> <path d="M33,52 C33,40.95430500338401 50.908610006768015,32 73,32 C95.09138999323199,32 113,40.95430500338401 113,52 C113,63.04569499661599 95.09138999323199,72 73,72 C50.908610006768015,72 33,63.04569499661599 33,52"  style="stroke:#000000;fill:#ffffff;stroke-width:2;stroke-linecap:butt;stroke-linejoin:miter;"   /><text y="44"  transform="rotate(0 73 ,50)"  font-family="Arial"  font-size="12"  fill=" #000000"  text-anchor="middle" ><tspan x="73" dy="12">Inicio</tspan></text><path d="M35,126 C35,114.95430500338398 52.908610006768015,106 75,106 C97.09138999323199,106 115,114.95430500338398 115,126 C115,137.04569499661602 97.09138999323199,146 75,146 C52.908610006768015,146 35,137.04569499661602 35,126"  style="stroke:#000000;fill:#ffffff;stroke-width:2;stroke-linecap:butt;stroke-linejoin:miter;"   /><text y="118"  transform="rotate(0 75 ,124)"  font-family="Arial"  font-size="12"  fill=" #000000"  text-anchor="middle" ><tspan x="75" dy="12">Fin</tspan></text><polygon points="169,30 259.7839387563005,30 259.7839387563005,75 169,75 "  style="stroke:#000000;fill:#ffffff;stroke-width:2;stroke-linecap:butt;stroke-linejoin:miter;"  /><text y="36.5"  transform="rotate(0 214.39196 ,50)"  font-family="Arial"  font-size="12"  fill=" #000000"  text-anchor="middle" ><tspan x="214.39196" dy="12">1.Recepcion</tspan><tspan x="214.39196" dy="15">de informacion</tspan></text><polygon points="300,30 393.7664222016941,30 393.7664222016941,75 300,75 "  style="stroke:#000000;fill:#ffffff;stroke-width:2;stroke-linecap:butt;stroke-linejoin:miter;"  /><text y="36.5"  transform="rotate(0 346.8832 ,50)"  font-family="Arial"  font-size="12"  fill=" #000000"  text-anchor="middle" ><tspan x="346.8832" dy="12">2.Validacion y</tspan><tspan x="346.8832" dy="15">escaneo</tspan></text><polygon points="300,104 394.56821901317574,104 394.56821901317574,149 300,149 "  style="stroke:#000000;fill:#ffffff;stroke-width:2;stroke-linecap:butt;stroke-linejoin:miter;"  /><text y="110.5"  transform="rotate(0 347.28411 ,124)"  font-family="Arial"  font-size="12"  fill=" #000000"  text-anchor="middle" ><tspan x="347.28411" dy="12">3.Transferencia</tspan><tspan x="347.28411" dy="15">responsable</tspan></text><polygon points="167,104 257.8780074117871,104 257.8780074117871,149 167,149 "  style="stroke:#000000;fill:#ffffff;stroke-width:2;stroke-linecap:butt;stroke-linejoin:miter;"  /><text y="110.5"  transform="rotate(0 212.43901 ,124)"  font-family="Arial"  font-size="12"  fill=" #000000"  text-anchor="middle" ><tspan x="212.43901" dy="12">4. Disposicion</tspan><tspan x="212.43901" dy="15">final</tspan></text><polyline points="113,52 133,52 149,52 149,52.5 169,52.5 " style="stroke:#000000;fill:none;stroke-width:1;stroke-linecap:butt;stroke-linejoin:miter;" /><path d=" M169,52.5 L156.00961894323342,45 M169,52.5 L156.00961894323342,60"  style="stroke:#000000;fill:none;stroke-width:1;stroke-linecap:butt;stroke-linejoin:miter;"  /><polygon points="155.8,47 155.8,47 155.8,57 155.8,57 "  style="stroke:none;fill:#FFFFFF;stroke-width:none;stroke-linecap:butt;stroke-linejoin:miter;"  /><text y="47"  transform="rotate(0 155.8 ,52)"  font-family="Arial"  font-size="10"  text-anchor="middle" ><tspan x="155.8" dy="10"></tspan></text><polyline points="259.7839387563005,52.5 279.7839387563005,52.5 280,52.5 300,52.5 " style="stroke:#000000;fill:none;stroke-width:1;stroke-linecap:butt;stroke-linejoin:miter;" /><path d=" M300,52.5 L287.0096189432334,45 M300,52.5 L287.0096189432334,60"  style="stroke:#000000;fill:none;stroke-width:1;stroke-linecap:butt;stroke-linejoin:miter;"  /><polygon points="273.70715,47.5 273.70715,47.5 273.70715,57.5 273.70715,57.5 "  style="stroke:none;fill:#FFFFFF;stroke-width:none;stroke-linecap:butt;stroke-linejoin:miter;"  /><text y="47.5"  transform="rotate(0 273.70715 ,52.5)"  font-family="Arial"  font-size="10"  text-anchor="middle" ><tspan x="273.70715" dy="10"></tspan></text><polyline points="346.8832111008471,75 346.8832111008471,95 347.08366030371747,95 347.08366030371747,84 347.28411,84 347.28411,104 " style="stroke:#000000;fill:none;stroke-width:1;stroke-linecap:butt;stroke-linejoin:miter;" /><path d=" M347.28411,104 L354.78411,91.00961894323342 M347.28411,104 L339.78411,91.00961894323342"  style="stroke:#000000;fill:none;stroke-width:1;stroke-linecap:butt;stroke-linejoin:miter;"  /><polygon points="348.85354,84.5 348.85354,84.5 348.85354,94.5 348.85354,94.5 "  style="stroke:none;fill:#FFFFFF;stroke-width:none;stroke-linecap:butt;stroke-linejoin:miter;"  /><text y="84.5"  transform="rotate(0 348.85354 ,89.5)"  font-family="Arial"  font-size="10"  text-anchor="middle" ><tspan x="348.85354" dy="10"></tspan></text><polyline points="300,126.5 280,126.5 277.87801,126.5 257.87801,126.5 " style="stroke:#000000;fill:none;stroke-width:1;stroke-linecap:butt;stroke-linejoin:miter;" /><path d=" M257.87801,126.5 L270.8683910567666,134 M257.87801,126.5 L270.8683910567666,119"  style="stroke:#000000;fill:none;stroke-width:1;stroke-linecap:butt;stroke-linejoin:miter;"  /><polygon points="277.67605,121.5 277.67605,121.5 277.67605,131.5 277.67605,131.5 "  style="stroke:none;fill:#FFFFFF;stroke-width:none;stroke-linecap:butt;stroke-linejoin:miter;"  /><text y="121.5"  transform="rotate(0 277.67605 ,126.5)"  font-family="Arial"  font-size="10"  text-anchor="middle" ><tspan x="277.67605" dy="10"></tspan></text><polyline points="167,126.5 147,126.5 135,126.5 135,126 115,126 " style="stroke:#000000;fill:none;stroke-width:1;stroke-linecap:butt;stroke-linejoin:miter;" /><path d=" M115,126 L127.99038105676658,133.5 M115,126 L127.99038105676658,118.5"  style="stroke:#000000;fill:none;stroke-width:1;stroke-linecap:butt;stroke-linejoin:miter;"  /><polygon points="122.8,121.5 122.8,121.5 122.8,131.5 122.8,131.5 "  style="stroke:none;fill:#FFFFFF;stroke-width:none;stroke-linecap:butt;stroke-linejoin:miter;"  /><text y="121.5"  transform="rotate(0 122.8 ,126.5)"  font-family="Arial"  font-size="10"  text-anchor="middle" ><tspan x="122.8" dy="10"></tspan></text></svg>