<svg width="1000" height="700" xmlns="http://www.w3.org/2000/svg" version="1.1"> <path d="M40,68 C40,56.95430500338401 57.908610006768015,48 80,48 C102.09138999323199,48 120,56.95430500338401 120,68 C120,79.04569499661599 102.09138999323199,88 80,88 C57.908610006768015,88 40,79.04569499661599 40,68"  style="stroke:#000000;fill:#ffffff;stroke-width:2;stroke-linecap:butt;stroke-linejoin:miter;"   /><text y="60"  transform="rotate(0 80 ,66)"  font-family="Arial"  font-size="12"  fill=" #000000"  text-anchor="middle" ><tspan x="80" dy="12">Inicio</tspan></text><path d="M41,169 C41,157.95430500338398 58.908610006768015,149 81,149 C103.09138999323199,149 121,157.95430500338398 121,169 C121,180.04569499661602 103.09138999323199,189 81,189 C58.908610006768015,189 41,180.04569499661602 41,169"  style="stroke:#000000;fill:#ffffff;stroke-width:2;stroke-linecap:butt;stroke-linejoin:miter;"   /><text y="161"  transform="rotate(0 81 ,167)"  font-family="Arial"  font-size="12"  fill=" #000000"  text-anchor="middle" ><tspan x="81" dy="12">Fin</tspan></text><polygon points="170,45 240,45 240,90 170,90 "  style="stroke:#000000;fill:#ffffff;stroke-width:2;stroke-linecap:butt;stroke-linejoin:miter;"  /><text y="59"  transform="rotate(0 205 ,65)"  font-family="Arial"  font-size="12"  fill=" #000000"  text-anchor="middle" ><tspan x="205" dy="12">Paso1</tspan></text><polygon points="311,42 381,42 381,87 311,87 "  style="stroke:#000000;fill:#ffffff;stroke-width:2;stroke-linecap:butt;stroke-linejoin:miter;"  /><text y="56"  transform="rotate(0 346 ,62)"  font-family="Arial"  font-size="12"  fill=" #000000"  text-anchor="middle" ><tspan x="346" dy="12">Paso2</tspan></text><polygon points="315,147 385,147 385,192 315,192 "  style="stroke:#000000;fill:#ffffff;stroke-width:2;stroke-linecap:butt;stroke-linejoin:miter;"  /><text y="161"  transform="rotate(0 350 ,167)"  font-family="Arial"  font-size="12"  fill=" #000000"  text-anchor="middle" ><tspan x="350" dy="12">Paso3</tspan></text></svg>