<svg width="1000" height="700" xmlns="http://www.w3.org/2000/svg" version="1.1"> <path d="M46,56 C46,44.95430500338401 63.908610006768015,36 86,36 C108.09138999323199,36 126,44.95430500338401 126,56 C126,67.04569499661599 108.09138999323199,76 86,76 C63.908610006768015,76 46,67.04569499661599 46,56"  style="stroke:#000000;fill:#ffffff;stroke-width:2;stroke-linecap:butt;stroke-linejoin:miter;"   /><text y="48"  transform="rotate(0 86 ,54)"  font-family="Arial"  font-size="12"  fill=" #000000"  text-anchor="middle" ><tspan x="86" dy="12">Inicio</tspan></text><path d="M345,59.33331298828125 C345,48.28761799166523 362.908610006768,39.33331298828125 385,39.33331298828125 C407.091389993232,39.33331298828125 425,48.28761799166523 425,59.33331298828125 C425,70.37900798489727 407.091389993232,79.33331298828125 385,79.33331298828125 C362.908610006768,79.33331298828125 345,70.37900798489727 345,59.33331298828125"  style="stroke:#000000;fill:#ffffff;stroke-width:2;stroke-linecap:butt;stroke-linejoin:miter;"   /><text y="51.33331"  transform="rotate(0 385 ,57.33331)"  font-family="Arial"  font-size="12"  fill=" #000000"  text-anchor="middle" ><tspan x="385" dy="12">Fin</tspan></text><polygon points="187,36 257,36 257,81 187,81 "  style="stroke:#000000;fill:#ffffff;stroke-width:2;stroke-linecap:butt;stroke-linejoin:miter;"  /><text y="50"  transform="rotate(0 222 ,56)"  font-family="Arial"  font-size="12"  fill=" #000000"  text-anchor="middle" ><tspan x="222" dy="12">Tarea 1</tspan></text><polyline points="126,56 187,58.5 " style="stroke:#000000;fill:none;stroke-width:1;stroke-linecap:butt;stroke-linejoin:miter;" /><path d=" M187,58.5 L174.3276341349036,50.474344675907155 M187,58.5 L173.71339567476957,65.46176310317782"  style="stroke:#000000;fill:none;stroke-width:1;stroke-linecap:butt;stroke-linejoin:miter;"  /><polygon points="158.1536,52.25 158.1536,52.25 158.1536,62.25 158.1536,62.25 "  style="stroke:none;fill:#FFFFFF;stroke-width:none;stroke-linecap:butt;stroke-linejoin:miter;"  /><text y="52.25"  transform="rotate(0 158.1536 ,57.25)"  font-family="Arial"  font-size="10"  text-anchor="middle" ><tspan x="158.1536" dy="10"></tspan></text><polyline points="257,58.5 345,59.33331 " style="stroke:#000000;fill:none;stroke-width:1;stroke-linecap:butt;stroke-linejoin:miter;" /><path d=" M345,59.33331 L332.08121888333477,51.71064022755847 M345,59.33331 L331.9391837740733,66.70996774674202"  style="stroke:#000000;fill:none;stroke-width:1;stroke-linecap:butt;stroke-linejoin:miter;"  /><polygon points="304.24768,53.91666 304.24768,53.91666 304.24768,63.91666 304.24768,63.91666 "  style="stroke:none;fill:#FFFFFF;stroke-width:none;stroke-linecap:butt;stroke-linejoin:miter;"  /><text y="53.91666"  transform="rotate(0 304.24768 ,58.91666)"  font-family="Arial"  font-size="10"  text-anchor="middle" ><tspan x="304.24768" dy="10"></tspan></text></svg>