<svg width="550" height="250" xmlns="http://www.w3.org/2000/svg" version="1.1"> <path d="M34,53 C34,41.95430500338401 51.908610006768015,33 74,33 C96.09138999323199,33 114,41.95430500338401 114,53 C114,64.04569499661599 96.09138999323199,73 74,73 C51.908610006768015,73 34,64.04569499661599 34,53"  style="stroke:#000000;fill:#ffffff;stroke-width:2;stroke-linecap:butt;stroke-linejoin:miter;"   /><text y="45"  transform="rotate(0 74 ,51)"  font-family="Arial"  font-size="12"  fill=" #000000"  text-anchor="middle" ><tspan x="74" dy="12">Inicio</tspan></text><path d="M56,134 C56,122.95430500338398 73.90861000676801,114 96,114 C118.09138999323199,114 136,122.95430500338398 136,134 C136,145.04569499661602 118.09138999323199,154 96,154 C73.90861000676801,154 56,145.04569499661602 56,134"  style="stroke:#000000;fill:#ffffff;stroke-width:2;stroke-linecap:butt;stroke-linejoin:miter;"   /><text y="126"  transform="rotate(0 96 ,132)"  font-family="Arial"  font-size="12"  fill=" #000000"  text-anchor="middle" ><tspan x="96" dy="12">Fin</tspan></text><polygon points="160.11320143828965,31 243.76382205624998,31 243.76382205624998,76 160.11320143828965,76 "  style="stroke:#000000;fill:#ffffff;stroke-width:2;stroke-linecap:butt;stroke-linejoin:miter;"  /><text y="45"  transform="rotate(0 201.93851 ,51)"  font-family="Arial"  font-size="12"  fill=" #000000"  text-anchor="middle" ><tspan x="201.93851" dy="12">1. Radicacion</tspan></text><polygon points="297,31 395.079042982289,31 395.079042982289,76 297,76 "  style="stroke:#000000;fill:#ffffff;stroke-width:2;stroke-linecap:butt;stroke-linejoin:miter;"  /><text y="45"  transform="rotate(0 346.03951 ,51)"  font-family="Arial"  font-size="12"  fill=" #000000"  text-anchor="middle" ><tspan x="346.03951" dy="12">2. Responder</tspan></text><polygon points="300,111 392.76334293112666,111 392.76334293112666,156 300,156 "  style="stroke:#000000;fill:#ffffff;stroke-width:2;stroke-linecap:butt;stroke-linejoin:miter;"  /><text y="125"  transform="rotate(0 346.38167 ,131)"  font-family="Arial"  font-size="12"  fill=" #000000"  text-anchor="middle" ><tspan x="346.38167" dy="12">3. Confirmar</tspan></text><polyline points="114,53 134,53 140.11320143828965,53 140.1132,53.5 160.1132,53.5 " style="stroke:#000000;fill:none;stroke-width:1;stroke-linecap:butt;stroke-linejoin:miter;" /><path d=" M160.1132,53.5 L147.12281894323343,46 M160.1132,53.5 L147.12281894323343,61"  style="stroke:#000000;fill:none;stroke-width:1;stroke-linecap:butt;stroke-linejoin:miter;"  /><polygon points="137.12404,48 137.12404,48 137.12404,58 137.12404,58 "  style="stroke:none;fill:#FFFFFF;stroke-width:none;stroke-linecap:butt;stroke-linejoin:miter;"  /><text y="48"  transform="rotate(0 137.12404 ,53)"  font-family="Arial"  font-size="10"  text-anchor="middle" ><tspan x="137.12404" dy="10"></tspan></text><polyline points="243.76382205624998,53.5 263.76382205625,53.5 277,53.5 297,53.5 " style="stroke:#000000;fill:none;stroke-width:1;stroke-linecap:butt;stroke-linejoin:miter;" /><path d=" M297,53.5 L284.0096189432334,46 M297,53.5 L284.0096189432334,61"  style="stroke:#000000;fill:none;stroke-width:1;stroke-linecap:butt;stroke-linejoin:miter;"  /><polygon points="272.30205,48.5 272.30205,48.5 272.30205,58.5 272.30205,58.5 "  style="stroke:none;fill:#FFFFFF;stroke-width:none;stroke-linecap:butt;stroke-linejoin:miter;"  /><text y="48.5"  transform="rotate(0 272.30205 ,53.5)"  font-family="Arial"  font-size="10"  text-anchor="middle" ><tspan x="272.30205" dy="10"></tspan></text><polyline points="346.0395214911445,76 346.0395214911445,96 346.21059647835386,96 346.21059647835386,91 346.38167,91 346.38167,111 " style="stroke:#000000;fill:none;stroke-width:1;stroke-linecap:butt;stroke-linejoin:miter;" /><path d=" M346.38167,111 L353.88167,98.00961894323342 M346.38167,111 L338.88167,98.00961894323342"  style="stroke:#000000;fill:none;stroke-width:1;stroke-linecap:butt;stroke-linejoin:miter;"  /><polygon points="345.57357,88.5 345.57357,88.5 345.57357,98.5 345.57357,98.5 "  style="stroke:none;fill:#FFFFFF;stroke-width:none;stroke-linecap:butt;stroke-linejoin:miter;"  /><text y="88.5"  transform="rotate(0 345.57357 ,93.5)"  font-family="Arial"  font-size="10"  text-anchor="middle" ><tspan x="345.57357" dy="10"></tspan></text><polyline points="300,133.5 280,133.5 156,133.5 156,134 136,134 " style="stroke:#000000;fill:none;stroke-width:1;stroke-linecap:butt;stroke-linejoin:miter;" /><path d=" M136,134 L148.99038105676658,141.5 M136,134 L148.99038105676658,126.5"  style="stroke:#000000;fill:none;stroke-width:1;stroke-linecap:butt;stroke-linejoin:miter;"  /><polygon points="217.43034,128.5 217.43034,128.5 217.43034,138.5 217.43034,138.5 "  style="stroke:none;fill:#FFFFFF;stroke-width:none;stroke-linecap:butt;stroke-linejoin:miter;"  /><text y="128.5"  transform="rotate(0 217.43034 ,133.5)"  font-family="Arial"  font-size="10"  text-anchor="middle" ><tspan x="217.43034" dy="10"></tspan></text></svg>