<svg width="600" height="300" xmlns="http://www.w3.org/2000/svg" version="1.1"> <path d="M72,59 C72,47.95430500338401 89.90861000676801,39 112,39 C134.09138999323199,39 152,47.95430500338401 152,59 C152,70.04569499661599 134.09138999323199,79 112,79 C89.90861000676801,79 72,70.04569499661599 72,59"  style="stroke:#000000;fill:#ffffff;stroke-width:2;stroke-linecap:butt;stroke-linejoin:miter;"   /><text y="51"  transform="rotate(0 112 ,57)"  font-family="Arial"  font-size="12"  fill=" #000000"  text-anchor="middle" ><tspan x="112" dy="12">Inicio</tspan></text><path d="M61,186 C61,174.95430500338398 78.90861000676801,166 101,166 C123.09138999323199,166 141,174.95430500338398 141,186 C141,197.04569499661602 123.09138999323199,206 101,206 C78.90861000676801,206 61,197.04569499661602 61,186"  style="stroke:#000000;fill:#ffffff;stroke-width:2;stroke-linecap:butt;stroke-linejoin:miter;"   /><text y="178"  transform="rotate(0 101 ,184)"  font-family="Arial"  font-size="12"  fill=" #000000"  text-anchor="middle" ><tspan x="101" dy="12">Fin</tspan></text><polygon points="219.10273412605713,24 329.09602568394223,24 329.09602568394223,94.70997314435482 219.10273412605713,94.70997314435482 "  style="stroke:#000000;fill:#ffffff;stroke-width:2;stroke-linecap:butt;stroke-linejoin:miter;"  /><text y="49.42666"  transform="rotate(0 274.09938 ,55.42666)"  font-family="Arial"  font-size="12"  fill=" #000000"  text-anchor="middle" ><tspan x="274.09938" dy="12">radicar documento</tspan></text><polygon points="405.72466445996224,19 531.5272637290592,19 531.5272637290592,99.87309953013369 405.72466445996224,99.87309953013369 "  style="stroke:#000000;fill:#ffffff;stroke-width:2;stroke-linecap:butt;stroke-linejoin:miter;"  /><text y="48.9436"  transform="rotate(0 468.62596 ,54.9436)"  font-family="Arial"  font-size="12"  fill=" #000000"  text-anchor="middle" ><tspan x="468.62596" dy="12">responder documento</tspan></text><polygon points="417.93168047796286,153 519.277377247004,153 519.277377247004,218.15080506581216 417.93168047796286,218.15080506581216 "  style="stroke:#000000;fill:#ffffff;stroke-width:2;stroke-linecap:butt;stroke-linejoin:miter;"  /><text y="175.95591"  transform="rotate(0 468.60456 ,181.95591)"  font-family="Arial"  font-size="12"  fill=" #000000"  text-anchor="middle" ><tspan x="468.60456" dy="12">Notificar al cliente</tspan></text><polyline points="152,59 172,59 199.10273412605713,59 199.10273,59.35499 219.10273,59.35499 " style="stroke:#000000;fill:none;stroke-width:1;stroke-linecap:butt;stroke-linejoin:miter;" /><path d=" M219.10273,59.35499 L206.11234894323343,51.85499 M219.10273,59.35499 L206.11234894323343,66.85499"  style="stroke:#000000;fill:none;stroke-width:1;stroke-linecap:butt;stroke-linejoin:miter;"  /><polygon points="185.52414,54 185.52414,54 185.52414,64 185.52414,64 "  style="stroke:none;fill:#FFFFFF;stroke-width:none;stroke-linecap:butt;stroke-linejoin:miter;"  /><text y="54"  transform="rotate(0 185.52414 ,59)"  font-family="Arial"  font-size="10"  text-anchor="middle" ><tspan x="185.52414" dy="10"></tspan></text><polyline points="329.09602568394223,59.354986572177395 349.09602568394223,59.354986572177395 385.72466445996224,59.354986572177395 385.72466,59.43655 405.72466,59.43655 " style="stroke:#000000;fill:none;stroke-width:1;stroke-linecap:butt;stroke-linejoin:miter;" /><path d=" M405.72466,59.43655 L392.7342789432334,51.93655 M405.72466,59.43655 L392.7342789432334,66.93655"  style="stroke:#000000;fill:none;stroke-width:1;stroke-linecap:butt;stroke-linejoin:miter;"  /><polygon points="366.8519,54.35499 366.8519,54.35499 366.8519,64.35499 366.8519,64.35499 "  style="stroke:none;fill:#FFFFFF;stroke-width:none;stroke-linecap:butt;stroke-linejoin:miter;"  /><text y="54.35499"  transform="rotate(0 366.8519 ,59.35499)"  font-family="Arial"  font-size="10"  text-anchor="middle" ><tspan x="366.8519" dy="10"></tspan></text><polyline points="468.6259640945105,99.87309953013369 468.6259640945105,119.87309953013369 468.6045288624834,119.87309953013369 468.60453,133 468.60453,153 " style="stroke:#000000;fill:none;stroke-width:1;stroke-linecap:butt;stroke-linejoin:miter;" /><path d=" M468.60453,153 L476.10453,140.00961894323342 M468.60453,153 L461.10453,140.00961894323342"  style="stroke:#000000;fill:none;stroke-width:1;stroke-linecap:butt;stroke-linejoin:miter;"  /><polygon points="467.6448,121.42583 467.6448,121.42583 467.6448,131.42583000000002 467.6448,131.42583000000002 "  style="stroke:none;fill:#FFFFFF;stroke-width:none;stroke-linecap:butt;stroke-linejoin:miter;"  /><text y="121.42583"  transform="rotate(0 467.6448 ,126.42583)"  font-family="Arial"  font-size="10"  text-anchor="middle" ><tspan x="467.6448" dy="10"></tspan></text><polyline points="417.93168047796286,185.57540253290622 397.93168047796286,185.57540253290622 161,185.57540253290622 161,186 141,186 " style="stroke:#000000;fill:none;stroke-width:1;stroke-linecap:butt;stroke-linejoin:miter;" /><path d=" M141,186 L153.99038105676658,193.5 M141,186 L153.99038105676658,178.5"  style="stroke:#000000;fill:none;stroke-width:1;stroke-linecap:butt;stroke-linejoin:miter;"  /><polygon points="279.09434,180.5754 279.09434,180.5754 279.09434,190.5754 279.09434,190.5754 "  style="stroke:none;fill:#FFFFFF;stroke-width:none;stroke-linecap:butt;stroke-linejoin:miter;"  /><text y="180.5754"  transform="rotate(0 279.09434 ,185.5754)"  font-family="Arial"  font-size="10"  text-anchor="middle" ><tspan x="279.09434" dy="10"></tspan></text></svg>