<svg width="600" height="300" xmlns="http://www.w3.org/2000/svg" version="1.1"> <path d="M42,48 C42,36.95430500338401 59.908610006768015,28 82,28 C104.09138999323199,28 122,36.95430500338401 122,48 C122,59.04569499661599 104.09138999323199,68 82,68 C59.908610006768015,68 42,59.04569499661599 42,48"  style="stroke:#000000;fill:#ffffff;stroke-width:2;stroke-linecap:butt;stroke-linejoin:miter;"   /><text y="40"  transform="rotate(0 82 ,46)"  font-family="Arial"  font-size="12"  fill=" #000000"  text-anchor="middle" ><tspan x="82" dy="12">Inicio</tspan></text><path d="M39,144 C39,132.95430500338398 56.908610006768015,124 79,124 C101.09138999323199,124 119,132.95430500338398 119,144 C119,155.04569499661602 101.09138999323199,164 79,164 C56.908610006768015,164 39,155.04569499661602 39,144"  style="stroke:#000000;fill:#ffffff;stroke-width:2;stroke-linecap:butt;stroke-linejoin:miter;"   /><text y="136"  transform="rotate(0 79 ,142)"  font-family="Arial"  font-size="12"  fill=" #000000"  text-anchor="middle" ><tspan x="79" dy="12">Fin</tspan></text><polygon points="220,25 290,25 290,70 220,70 "  style="stroke:#000000;fill:#ffffff;stroke-width:2;stroke-linecap:butt;stroke-linejoin:miter;"  /><text y="39"  transform="rotate(0 255 ,45)"  font-family="Arial"  font-size="12"  fill=" #000000"  text-anchor="middle" ><tspan x="255" dy="12">Paso1</tspan></text><polyline points="122,48 142,48 200,48 200,47.5 220,47.5 " style="stroke:#000000;fill:none;stroke-width:1;stroke-linecap:butt;stroke-linejoin:miter;" /><path d=" M220,47.5 L207.00961894323342,40 M220,47.5 L207.00961894323342,55"  style="stroke:#000000;fill:none;stroke-width:1;stroke-linecap:butt;stroke-linejoin:miter;"  /><polygon points="174.83872,43 174.83872,43 174.83872,53 174.83872,53 "  style="stroke:none;fill:#FFFFFF;stroke-width:none;stroke-linecap:butt;stroke-linejoin:miter;"  /><text y="43"  transform="rotate(0 174.83872 ,48)"  font-family="Arial"  font-size="10"  text-anchor="middle" ><tspan x="174.83872" dy="10"></tspan></text><polyline points="255,70 255,90 255,144 139,144 119,144 " style="stroke:#000000;fill:none;stroke-width:1;stroke-linecap:butt;stroke-linejoin:miter;" /><path d=" M119,144 L131.99038105676658,151.5 M119,144 L131.99038105676658,136.5"  style="stroke:#000000;fill:none;stroke-width:1;stroke-linecap:butt;stroke-linejoin:miter;"  /><polygon points="170.05663,139 170.05663,139 170.05663,149 170.05663,149 "  style="stroke:none;fill:#FFFFFF;stroke-width:none;stroke-linecap:butt;stroke-linejoin:miter;"  /><text y="139"  transform="rotate(0 170.05663 ,144)"  font-family="Arial"  font-size="10"  text-anchor="middle" ><tspan x="170.05663" dy="10"></tspan></text></svg>