<svg width="600" height="300" xmlns="http://www.w3.org/2000/svg" version="1.1"> <path d="M63,50 C63,38.95430500338401 80.90861000676801,30 103,30 C125.09138999323199,30 143,38.95430500338401 143,50 C143,61.04569499661599 125.09138999323199,70 103,70 C80.90861000676801,70 63,61.04569499661599 63,50"  style="stroke:#000000;fill:#ffffff;stroke-width:2;stroke-linecap:butt;stroke-linejoin:miter;"   /><text y="42"  transform="rotate(0 103 ,48)"  font-family="Arial"  font-size="12"  fill=" #000000"  text-anchor="middle" ><tspan x="103" dy="12">Inicio</tspan></text><path d="M65,167 C65,155.95430500338398 82.90861000676801,147 105,147 C127.09138999323199,147 145,155.95430500338398 145,167 C145,178.04569499661602 127.09138999323199,187 105,187 C82.90861000676801,187 65,178.04569499661602 65,167"  style="stroke:#000000;fill:#ffffff;stroke-width:2;stroke-linecap:butt;stroke-linejoin:miter;"   /><text y="159"  transform="rotate(0 105 ,165)"  font-family="Arial"  font-size="12"  fill=" #000000"  text-anchor="middle" ><tspan x="105" dy="12">Fin</tspan></text><polygon points="174.99430370828975,27 333.93664655277973,27 333.93664655277973,72 174.99430370828975,72 "  style="stroke:#000000;fill:#ffffff;stroke-width:2;stroke-linecap:butt;stroke-linejoin:miter;"  /><text y="41"  transform="rotate(0 254.46546 ,47)"  font-family="Arial"  font-size="12"  fill=" #000000"  text-anchor="middle" ><tspan x="254.46546" dy="12">Radicación del documento</tspan></text><polygon points="384.77832538019754,27 541.9317786640969,27 541.9317786640969,72 384.77832538019754,72 "  style="stroke:#000000;fill:#ffffff;stroke-width:2;stroke-linecap:butt;stroke-linejoin:miter;"  /><text y="41"  transform="rotate(0 463.35504 ,47)"  font-family="Arial"  font-size="12"  fill=" #000000"  text-anchor="middle" ><tspan x="463.35504" dy="12">Dar repuesta al documento</tspan></text><polygon points="409,133 479,133 479,178 409,178 "  style="stroke:#000000;fill:#ffffff;stroke-width:2;stroke-linecap:butt;stroke-linejoin:miter;"  /><text y="147"  transform="rotate(0 444 ,153)"  font-family="Arial"  font-size="12"  fill=" #000000"  text-anchor="middle" ><tspan x="444" dy="12">Archivar</tspan></text><polyline points="143,50 163,50 163,49.75 154.99430370828975,49.75 154.9943,49.5 174.9943,49.5 " style="stroke:#000000;fill:none;stroke-width:1;stroke-linecap:butt;stroke-linejoin:miter;" /><path d=" M174.9943,49.5 L162.00391894323343,42 M174.9943,49.5 L162.00391894323343,57"  style="stroke:#000000;fill:none;stroke-width:1;stroke-linecap:butt;stroke-linejoin:miter;"  /><polygon points="158.72007,44.75 158.72007,44.75 158.72007,54.75 158.72007,54.75 "  style="stroke:none;fill:#FFFFFF;stroke-width:none;stroke-linecap:butt;stroke-linejoin:miter;"  /><text y="44.75"  transform="rotate(0 158.72007 ,49.75)"  font-family="Arial"  font-size="10"  text-anchor="middle" ><tspan x="158.72007" dy="10"></tspan></text><polyline points="333.93664655277973,49.5 353.93664655277973,49.5 364.77833,49.5 384.77833,49.5 " style="stroke:#000000;fill:none;stroke-width:1;stroke-linecap:butt;stroke-linejoin:miter;" /><path d=" M384.77833,49.5 L371.7879489432334,42 M384.77833,49.5 L371.7879489432334,57"  style="stroke:#000000;fill:none;stroke-width:1;stroke-linecap:butt;stroke-linejoin:miter;"  /><polygon points="359.3674,44.5 359.3674,44.5 359.3674,54.5 359.3674,54.5 "  style="stroke:none;fill:#FFFFFF;stroke-width:none;stroke-linecap:butt;stroke-linejoin:miter;"  /><text y="44.5"  transform="rotate(0 359.3674 ,49.5)"  font-family="Arial"  font-size="10"  text-anchor="middle" ><tspan x="359.3674" dy="10"></tspan></text><polyline points="463.3550520221473,72 463.3550520221473,92 444,92 444,113 444,133 " style="stroke:#000000;fill:none;stroke-width:1;stroke-linecap:butt;stroke-linejoin:miter;" /><path d=" M444,133 L451.5,120.00961894323342 M444,133 L436.5,120.00961894323342"  style="stroke:#000000;fill:none;stroke-width:1;stroke-linecap:butt;stroke-linejoin:miter;"  /><polygon points="453.96,87.82247 453.96,87.82247 453.96,97.82247 453.96,97.82247 "  style="stroke:none;fill:#FFFFFF;stroke-width:none;stroke-linecap:butt;stroke-linejoin:miter;"  /><text y="87.82247"  transform="rotate(0 453.96 ,92.82247)"  font-family="Arial"  font-size="10"  text-anchor="middle" ><tspan x="453.96" dy="10"></tspan></text><polyline points="409,155.5 389,155.5 165,155.5 165,167 145,167 " style="stroke:#000000;fill:none;stroke-width:1;stroke-linecap:butt;stroke-linejoin:miter;" /><path d=" M145,167 L157.99038105676658,174.5 M145,167 L157.99038105676658,159.5"  style="stroke:#000000;fill:none;stroke-width:1;stroke-linecap:butt;stroke-linejoin:miter;"  /><polygon points="204,150.5 204,150.5 204,160.5 204,160.5 "  style="stroke:none;fill:#FFFFFF;stroke-width:none;stroke-linecap:butt;stroke-linejoin:miter;"  /><text y="150.5"  transform="rotate(0 204 ,155.5)"  font-family="Arial"  font-size="10"  text-anchor="middle" ><tspan x="204" dy="10"></tspan></text></svg>